<?xml version="1.0" standalone="no"?>
<!DOCTYPE svg PUBLIC "-//W3C//DTD SVG 20010904//EN"
 "http://www.w3.org/TR/2001/REC-SVG-20010904/DTD/svg10.dtd">
<svg version="1.0" xmlns="http://www.w3.org/2000/svg"
 width="289.000000pt" height="268.000000pt" viewBox="0 0 289.000000 268.000000"
 preserveAspectRatio="xMidYMid meet">

<g transform="translate(0.000000,268.000000) scale(0.100000,-0.100000)"
fill="#000000" stroke="none">
<path d="M1291 2315 c-65 -12 -207 -68 -303 -121 -14 -8 -42 -14 -61 -14 -19
0 -64 -9 -99 -20 -55 -17 -64 -18 -74 -5 -16 21 -40 19 -58 -7 -12 -17 -13
-25 -3 -42 6 -12 10 -25 9 -30 -2 -5 7 -2 20 8 64 47 135 58 188 31 48 -25 52
-81 7 -103 -12 -6 -42 -16 -67 -23 -56 -14 -128 -50 -169 -85 l-32 -26 7 41
c7 44 -3 52 -29 24 -21 -24 -87 -163 -87 -184 0 -9 -11 -52 -25 -95 -56 -172
-53 -359 8 -539 34 -102 70 -157 171 -265 39 -41 84 -93 100 -115 58 -80 203
-177 306 -205 60 -16 72 -27 59 -52 -10 -18 -19 -20 -73 -16 -106 7 -314 121
-392 215 -64 78 -120 156 -138 191 -20 38 -30 43 -16 7 29 -77 151 -229 226
-282 90 -65 286 -158 405 -192 120 -35 293 -56 387 -47 180 16 394 113 580
263 67 55 116 113 151 180 32 64 25 64 -14 -1 -55 -91 -108 -149 -191 -206
-121 -84 -244 -126 -421 -146 -71 -8 -76 -1 -37 45 18 21 43 36 82 46 155 43
222 67 265 96 103 68 234 224 302 359 15 30 40 69 56 86 l30 31 10 207 c10
200 10 210 -12 299 -29 120 -104 278 -160 342 -25 28 -64 73 -87 102 -48 58
-151 138 -227 175 -154 77 -403 107 -594 73z m312 -57 c28 -6 63 -22 82 -39
28 -25 41 -29 91 -29 45 0 74 -7 123 -30 87 -41 182 -111 223 -163 63 -79 183
-304 195 -366 6 -31 4 -34 -13 -27 -10 5 -38 11 -62 13 -23 3 -45 10 -48 14
-3 5 -16 9 -30 9 -18 0 -32 -12 -54 -46 -16 -26 -31 -51 -33 -57 -2 -6 -12 -5
-27 3 -22 12 -26 10 -50 -19 -15 -17 -34 -31 -42 -31 -9 0 -30 -22 -48 -50
-29 -44 -53 -63 -76 -59 -19 3 -33 -2 -48 -16 -14 -14 -18 -14 -45 0 -17 8
-38 15 -48 15 -10 -1 -2 -7 17 -14 19 -8 58 -23 85 -34 64 -25 104 -36 87 -24
-10 6 1 20 42 51 31 23 56 46 56 51 0 17 -11 11 -32 -16 -11 -14 -37 -36 -58
-49 -33 -21 -42 -23 -69 -12 -41 15 -34 31 14 37 33 4 46 13 77 55 24 32 46
50 59 50 13 0 27 11 36 28 12 24 19 27 43 22 25 -6 31 -2 46 27 21 42 54 78
71 78 8 0 36 -20 62 -45 31 -29 57 -45 74 -45 53 0 58 -19 53 -169 -3 -79 -12
-157 -21 -187 -13 -46 -89 -164 -104 -164 -3 0 -15 22 -27 48 l-21 48 31 -4
31 -5 -19 22 c-11 12 -21 34 -22 49 -1 15 -7 45 -12 67 -6 22 -14 58 -17 79
-5 29 -9 36 -16 25 -5 -8 -9 -24 -9 -36 0 -19 -27 -112 -35 -121 -1 -1 -26 7
-55 18 -29 11 -55 19 -57 16 -2 -2 22 -14 54 -25 100 -37 96 -34 80 -55 -13
-17 -21 -15 -173 49 -87 38 -199 82 -249 100 -49 18 -112 44 -140 58 -27 14
-62 31 -77 38 -33 13 -34 28 -10 80 12 28 23 39 40 39 20 0 22 -4 16 -22 -3
-13 -14 -31 -22 -41 -14 -16 -14 -19 -2 -27 12 -7 18 1 29 38 7 26 15 65 17
87 2 33 2 35 -4 10 -5 -20 -14 -31 -28 -33 -19 -3 -22 3 -28 59 -4 45 -3 65 6
71 10 6 10 8 1 8 -24 0 -15 63 12 92 22 24 28 26 45 16 10 -7 24 -22 31 -35 7
-13 27 -34 44 -48 18 -13 35 -37 38 -53 3 -15 14 -39 25 -52 19 -24 20 -24 48
-5 l29 19 -30 8 c-24 7 -37 22 -61 73 -18 35 -30 66 -27 69 8 7 84 -35 90 -50
3 -8 9 -11 14 -8 5 3 9 1 9 -4 0 -14 35 -21 54 -10 21 12 22 42 1 34 -8 -3
-15 -1 -15 3 0 5 7 11 15 15 24 9 18 29 -7 23 -28 -8 -48 9 -48 39 0 13 -4 24
-9 24 -5 0 -11 29 -13 65 -5 77 -25 109 -89 144 l-44 24 42 -37 c31 -27 47
-51 58 -88 21 -73 19 -89 -8 -47 -25 42 -73 84 -137 124 -25 15 -51 34 -57 43
-10 11 -13 12 -13 3 0 -8 21 -33 48 -57 94 -87 152 -147 152 -157 0 -6 -21 11
-47 38 -46 48 -145 105 -210 121 -39 10 -22 -8 34 -35 26 -13 68 -40 92 -60
25 -20 65 -50 90 -66 44 -29 66 -65 39 -65 -21 0 -43 18 -34 27 5 4 11 2 13
-4 3 -7 9 -13 15 -13 6 0 3 9 -7 20 -10 11 -24 20 -32 20 -7 0 -30 15 -50 34
-48 42 -67 48 -123 37 -25 -5 -35 -9 -22 -10 23 -1 23 -1 5 -25 -10 -13 -35
-35 -55 -47 -21 -13 -38 -28 -38 -33 0 -4 6 -4 13 1 6 6 20 13 30 16 15 6 17
3 11 -16 -3 -12 -17 -36 -30 -54 -28 -37 -30 -45 -9 -37 9 4 18 -1 22 -12 4
-12 -2 -24 -23 -41 -28 -22 -28 -23 -6 -23 12 0 22 -4 22 -10 0 -19 -76 -11
-110 13 -57 38 -75 80 -73 172 1 81 22 155 42 155 6 0 11 -9 11 -20 0 -26 36
-27 49 -2 5 10 13 43 16 73 4 30 15 66 26 81 25 36 24 48 -5 48 -23 0 -37 -17
-35 -43 0 -7 4 -2 9 11 5 12 15 22 21 22 8 0 8 -4 1 -12 -6 -7 -15 -29 -20
-48 -9 -30 -10 -32 -12 -10 -1 22 -2 22 -9 6 -6 -16 -11 -13 -41 24 -38 48
-126 95 -197 106 -24 3 -43 9 -43 13 0 11 142 63 200 73 30 5 73 13 95 18 46
10 196 3 268 -12z m-867 -125 c-4 -32 -36 -46 -36 -16 0 19 18 43 31 43 4 0 6
-12 5 -27z m421 -65 c35 -11 65 -24 68 -28 5 -8 -112 27 -170 51 -35 14 34 -1
102 -23z m88 -75 l40 -8 -30 -12 c-16 -7 -66 -26 -111 -43 -147 -55 -199 -123
-233 -305 -29 -155 -29 -154 -30 -111 0 21 8 80 19 130 12 50 23 100 25 111 7
32 70 108 118 143 24 17 74 43 111 58 37 14 64 29 62 32 -3 3 -41 5 -83 5 -55
-1 -71 2 -53 8 26 9 98 5 165 -8z m75 -47 c0 -13 -7 -29 -15 -36 -12 -10 -15
-9 -15 6 0 32 12 64 21 58 5 -3 9 -16 9 -28z m-127 -75 c-58 -56 -92 -127
-108 -228 l-15 -88 5 90 c4 65 12 103 29 140 26 56 102 139 117 129 6 -3 -6
-22 -28 -43z m407 -66 c19 -14 29 -25 22 -25 -18 0 -62 23 -62 32 0 5 -13 0
-29 -11 -41 -29 -63 -83 -61 -144 3 -73 -2 -82 -10 -17 -9 71 4 116 45 157 40
40 51 41 95 8z m160 -31 c0 -8 -4 -12 -10 -9 -5 3 -10 10 -10 16 0 5 5 9 10 9
6 0 10 -7 10 -16z m-1114 -40 c12 -18 19 -55 22 -125 5 -104 15 -133 26 -75 6
33 54 86 77 86 24 0 67 -32 77 -57 10 -22 40 -152 43 -181 0 -4 7 14 14 39 19
60 44 81 102 86 62 5 107 -18 151 -77 40 -52 52 -60 52 -31 0 11 5 23 11 27
12 7 6 -25 -13 -63 -13 -25 -189 -97 -199 -80 -4 6 -33 -8 -70 -34 -71 -49
-123 -123 -134 -190 -8 -49 -26 -49 -63 -1 l-26 33 30 -7 29 -7 -28 32 c-27
32 -39 67 -15 43 28 -28 34 -10 12 34 -23 46 -27 61 -39 157 -4 26 -10 45 -15
42 -5 -3 -20 6 -34 20 -14 14 -30 25 -36 25 -6 0 2 -12 19 -26 27 -22 31 -33
31 -72 0 -52 -23 -146 -40 -167 -8 -10 -8 -14 2 -18 10 -3 7 -13 -10 -36 -28
-39 -25 -45 12 -26 28 15 28 14 22 -10 -13 -50 -27 -78 -35 -69 -35 37 -101
177 -111 234 -15 81 -15 236 -1 273 16 42 45 32 49 -17 2 -25 0 -36 -7 -31
-16 9 -14 -10 2 -23 11 -9 14 -2 16 34 2 37 -4 55 -29 94 l-31 49 20 45 c22
51 62 96 85 96 9 0 23 -12 32 -26z m824 -183 c-5 -11 -26 -25 -45 -32 -38 -14
-52 -41 -42 -82 6 -21 6 -21 -8 -3 -8 11 -15 27 -15 36 0 20 34 52 73 68 15 6
27 16 27 22 0 5 5 10 10 10 7 0 7 -6 0 -19z m-124 -118 c4 -14 16 -24 35 -28
40 -9 38 -35 -3 -36 -60 -2 -91 -15 -84 -35 7 -18 -2 -18 -20 1 -13 13 -10 16
22 30 34 14 36 17 32 52 -3 21 -8 47 -12 58 l-8 20 17 -20 c9 -11 18 -30 21
-42z m153 -105 c1 27 12 28 29 2 7 -11 17 -20 22 -20 22 0 201 -73 337 -138
l142 -67 1 -75 c0 -41 -3 -132 -7 -201 l-6 -126 -161 -6 c-88 -3 -162 -4 -165
-2 -2 3 -3 116 -2 252 l2 248 -131 41 -132 42 -134 -45 -134 -45 0 -211 c0
-182 -2 -213 -17 -229 -36 -39 -158 -7 -187 51 l-16 30 77 3 c103 4 97 22 -9
28 l-82 5 -12 40 c-18 58 -17 132 3 172 12 26 30 42 67 59 55 26 69 18 46 -26
-6 -11 -8 -25 -5 -30 3 -6 -3 -10 -15 -10 -12 0 -34 -6 -49 -14 -28 -15 -28
-15 -19 -83 13 -101 18 -108 12 -16 -5 75 -4 83 15 93 14 7 21 7 21 0 0 -5 -4
-10 -10 -10 -5 0 -10 -9 -10 -20 0 -13 7 -20 20 -20 16 0 20 7 20 33 0 17 4
27 8 21 4 -6 17 -14 30 -18 32 -10 30 -46 -3 -46 -20 0 -25 -5 -25 -25 0 -28
12 -32 34 -10 13 13 15 12 18 -12 2 -16 7 3 11 42 4 39 12 84 17 101 6 17 10
63 10 102 l0 72 30 0 c16 0 61 10 100 22 53 17 70 26 70 40 0 10 5 18 11 18 6
0 8 -7 5 -16 -5 -13 -1 -15 24 -10 17 3 44 9 60 12 18 3 30 1 30 -5 0 -6 4
-11 10 -11 5 0 7 7 4 15 -4 8 -1 15 4 15 6 0 13 -8 15 -17 3 -13 5 -11 7 7 l2
25 8 -25 c8 -24 8 -24 9 -2z m-490 -86 c-42 -20 -100 -63 -134 -100 -23 -25
-25 -34 -25 -122 1 -115 12 -172 47 -225 18 -27 21 -35 8 -25 -10 8 -27 33
-37 55 -17 34 -18 36 -13 10 9 -41 53 -95 101 -119 48 -26 143 -28 171 -5 36
32 43 32 43 0 l0 -31 -90 0 c-120 0 -177 29 -233 120 -22 37 -59 192 -48 203
6 6 14 -7 21 -34 18 -70 19 -69 13 17 -7 104 5 142 65 195 44 39 115 79 137
78 6 0 -6 -8 -26 -17z m518 -93 c35 -6 70 -17 78 -23 27 -19 36 -174 25 -395
-5 -108 -10 -199 -10 -202 0 -4 -11 -9 -25 -11 l-25 -5 0 272 0 271 -37 18
c-81 39 -205 30 -269 -19 -28 -22 -31 -29 -29 -72 1 -26 6 -141 10 -255 l8
-208 -26 0 c-31 0 -33 7 -41 130 -5 70 11 301 30 437 5 36 21 44 139 67 74 14
76 14 172 -5z m593 -63 c0 -12 -47 -86 -55 -86 -3 0 -5 24 -5 53 l0 54 30 -5
c17 -2 30 -9 30 -16z m-710 -144 c-1 -76 -1 -176 -1 -224 1 -88 1 -88 27 -88
36 0 64 -17 64 -40 0 -40 19 -28 22 14 4 65 24 45 31 -31 l5 -63 -85 0 c-59 0
-82 3 -77 11 5 8 -13 10 -59 8 -37 -2 -67 -1 -67 4 -2 65 1 76 23 80 19 4 18
4 -5 6 l-28 1 0 99 c0 54 -3 126 -6 160 -6 54 -5 61 11 61 11 0 15 5 12 14 -3
8 -9 30 -12 50 -6 31 -4 36 24 50 35 18 102 35 114 28 5 -2 8 -65 7 -140z
m139 8 c1 -74 -1 -80 -19 -80 -18 0 -20 7 -20 58 0 36 6 66 16 80 8 12 17 22
19 22 2 0 4 -36 4 -80z m1 -120 c0 -23 -4 -30 -20 -30 -16 0 -20 7 -20 30 0
23 4 30 20 30 16 0 20 -7 20 -30z m0 -70 c0 -17 -5 -30 -12 -31 -10 0 -10 -2
0 -6 14 -6 16 -73 2 -73 -14 0 -17 13 -23 83 -5 51 -4 57 14 57 14 0 19 -7 19
-30z m-70 -279 c21 -6 17 -8 -25 -14 -124 -16 -180 -19 -165 -8 12 9 9 11 -15
12 -39 3 65 16 130 16 28 1 61 -2 75 -6z"/>
<path d="M1934 1878 l-19 -23 23 19 c21 18 27 26 19 26 -2 0 -12 -10 -23 -22z"/>
<path d="M1891 1794 c0 -11 3 -14 6 -6 3 7 2 16 -1 19 -3 4 -6 -2 -5 -13z"/>
<path d="M1880 1755 c0 -11 5 -27 10 -35 8 -12 10 -12 10 5 0 11 -5 27 -10 35
-8 12 -10 12 -10 -5z"/>
<path d="M1980 1715 c-19 -19 -29 -35 -24 -35 11 0 45 34 58 58 12 21 1 14
-34 -23z"/>
<path d="M2149 1691 c-22 -21 -39 -45 -39 -52 0 -7 10 1 23 18 13 18 34 41 48
52 13 11 20 20 15 21 -4 0 -26 -17 -47 -39z"/>
<path d="M1700 1702 c0 -5 7 -13 16 -16 10 -4 14 -1 12 6 -5 15 -28 23 -28 10z"/>
<path d="M1551 1604 c0 -11 3 -14 6 -6 3 7 2 16 -1 19 -3 4 -6 -2 -5 -13z"/>
<path d="M1888 1523 c-19 -22 -58 -98 -58 -114 0 -7 12 10 26 37 37 70 53 85
75 74 23 -13 46 -13 34 -1 -21 20 -61 22 -77 4z"/>
<path d="M2281 1516 c2 -2 15 -9 29 -15 24 -11 24 -11 6 3 -16 13 -49 24 -35
12z"/>
<path d="M1562 1433 c-9 -15 -4 -21 29 -35 38 -16 39 -16 39 5 1 22 1 22 15 3
8 -11 15 -14 15 -7 0 7 5 9 11 5 7 -4 10 -1 7 7 -3 8 -22 15 -44 17 -21 2 -44
8 -51 13 -8 7 -15 5 -21 -8z"/>
<path d="M1670 1347 c0 -7 112 -49 117 -43 2 2 -15 11 -39 19 -24 8 -51 18
-60 22 -10 4 -18 5 -18 2z"/>
<path d="M1933 1319 c-33 -21 -40 -29 -25 -29 8 1 70 50 62 50 -3 0 -20 -10
-37 -21z"/>
<path d="M1849 1279 c30 -10 56 -17 58 -15 5 5 -86 36 -101 35 -6 0 13 -9 43
-20z"/>
<path d="M1938 1283 c7 -3 16 -2 19 1 4 3 -2 6 -13 5 -11 0 -14 -3 -6 -6z"/>
<path d="M1301 1934 c0 -11 3 -14 6 -6 3 7 2 16 -1 19 -3 4 -6 -2 -5 -13z"/>
<path d="M1050 1310 c-8 -5 -10 -10 -5 -10 6 0 17 5 25 10 8 5 11 10 5 10 -5
0 -17 -5 -25 -10z"/>
<path d="M1275 1265 c-16 -8 -23 -14 -15 -14 8 0 29 6 45 14 17 7 23 13 15 13
-8 0 -28 -6 -45 -13z"/>
<path d="M1828 1103 c6 -2 18 -2 25 0 6 3 1 5 -13 5 -14 0 -19 -2 -12 -5z"/>
<path d="M1871 1097 c2 -2 18 -11 34 -21 l30 -17 -24 20 c-13 12 -28 21 -34
21 -6 0 -8 -1 -6 -3z"/>
<path d="M1740 1080 c-8 -5 -12 -11 -10 -14 3 -2 14 2 24 10 22 15 10 19 -14
4z"/>
<path d="M1760 980 c0 -84 -1 -90 -21 -90 -16 0 -20 -5 -17 -27 l3 -28 95 -3
c81 -3 96 -1 107 14 28 38 17 44 -72 44 -78 0 -85 2 -85 20 0 15 7 20 28 20
26 0 28 3 24 29 -2 17 -11 32 -21 34 -14 4 -14 5 2 6 13 1 17 10 17 36 0 32
-2 35 -30 35 l-30 0 0 -90z m162 -107 c4 -2 5 -10 1 -18 -4 -11 -24 -15 -83
-15 -88 0 -110 5 -110 27 0 11 17 14 93 12 50 -1 95 -3 99 -6z"/>
<path d="M1830 1041 c0 -28 3 -31 30 -31 17 0 30 -4 30 -10 0 -5 -14 -10 -31
-10 -27 0 -30 -3 -27 -27 2 -23 7 -28 30 -26 20 1 28 -4 31 -20 3 -12 4 16 3
63 l-1 85 -32 3 c-31 3 -33 1 -33 -27z"/>
<path d="M970 965 c0 -18 5 -25 20 -25 15 0 20 7 20 25 0 18 -5 25 -20 25 -15
0 -20 -7 -20 -25z"/>
<path d="M1913 783 c9 -2 25 -2 35 0 9 3 1 5 -18 5 -19 0 -27 -2 -17 -5z"/>
<path d="M1843 762 c-7 -4 18 -6 55 -4 96 5 108 10 27 11 -38 0 -76 -3 -82 -7z"/>
<path d="M1773 753 c9 -2 23 -2 30 0 6 3 -1 5 -18 5 -16 0 -22 -2 -12 -5z"/>
<path d="M841 884 c0 -11 3 -14 6 -6 3 7 2 16 -1 19 -3 4 -6 -2 -5 -13z"/>
<path d="M1338 1023 c7 -3 16 -2 19 1 4 3 -2 6 -13 5 -11 0 -14 -3 -6 -6z"/>
<path d="M1318 973 c7 -3 16 -2 19 1 4 3 -2 6 -13 5 -11 0 -14 -3 -6 -6z"/>
<path d="M1303 943 c9 -2 23 -2 30 0 6 3 -1 5 -18 5 -16 0 -22 -2 -12 -5z"/>
<path d="M1300 760 l-25 -8 28 -1 c15 -1 27 4 27 9 0 6 -1 10 -2 9 -2 -1 -14
-5 -28 -9z"/>
<path d="M1328 713 c6 -2 18 -2 25 0 6 3 1 5 -13 5 -14 0 -19 -2 -12 -5z"/>
<path d="M1298 583 c7 -3 16 -2 19 1 4 3 -2 6 -13 5 -11 0 -14 -3 -6 -6z"/>
<path d="M1298 563 c7 -3 16 -2 19 1 4 3 -2 6 -13 5 -11 0 -14 -3 -6 -6z"/>
<path d="M2255 834 c-9 -15 -12 -23 -6 -20 11 7 35 46 28 46 -3 0 -12 -12 -22
-26z"/>
<path d="M600 836 c0 -2 8 -10 18 -17 15 -13 16 -12 3 4 -13 16 -21 21 -21 13z"/>
<path d="M2196 789 c-8 -12 -12 -28 -9 -36 3 -7 6 -13 7 -11 1 2 10 14 21 28
16 19 16 22 3 11 -20 -15 -25 -2 -6 17 7 7 9 12 6 12 -4 0 -14 -10 -22 -21z"/>
<path d="M665 750 c10 -11 20 -20 23 -20 3 0 -3 9 -13 20 -10 11 -20 20 -23
20 -3 0 3 -9 13 -20z"/>
<path d="M725 690 c10 -11 20 -20 23 -20 3 0 -3 9 -13 20 -10 11 -20 20 -23
20 -3 0 3 -9 13 -20z"/>
<path d="M2010 618 c-19 -16 -26 -26 -15 -20 18 9 64 53 54 52 -2 -1 -20 -15
-39 -32z"/>
<path d="M885 576 c17 -14 34 -26 39 -26 11 0 11 0 -34 29 l-35 23 30 -26z"/>
<path d="M930 571 c14 -11 30 -21 35 -21 11 0 -7 14 -40 31 -13 7 -12 3 5 -10z"/>
<path d="M1934 574 c-18 -14 -18 -14 6 -3 31 14 36 19 24 19 -6 0 -19 -7 -30
-16z"/>
<path d="M1895 535 c-25 -12 -26 -14 -5 -9 28 7 60 23 45 23 -5 0 -23 -6 -40
-14z"/>
<path d="M1031 526 c11 -11 109 -35 109 -26 0 4 -18 10 -39 14 -22 3 -48 9
-58 13 -10 3 -15 3 -12 -1z"/>
<path d="M1020 505 c14 -8 30 -14 35 -14 6 0 -1 6 -15 14 -14 8 -29 14 -35 14
-5 0 1 -6 15 -14z"/>
<path d="M1838 513 c7 -3 16 -2 19 1 4 3 -2 6 -13 5 -11 0 -14 -3 -6 -6z"/>
</g>
</svg>
